<svg xmlns="http://www.w3.org/2000/svg" viewBox="0 0 630 192" width="630" height="192">
	<style>
		tspan { white-space:pre }
		.shp0 { fill: #0072bc;stroke: #ffffff;paint-order:stroke fill markers;stroke-width: 16 } 
		.shp1 { fill: #ffffff } 
		.shp2 { fill: #ed1c24 } 
		.shp3 { fill: #002f60 } 
	</style>
	<g id="Layer">
		<path id="Layer" class="shp0" d="M597 174.2L13.6 174.2L13.6 16.3L613.6 16.3L613.6 157.6C613.6 166.7 606.2 174.2 597 174.2Z" />
		<path id="Layer" fill-rule="evenodd" class="shp1" d="M57.4 63.5C57.4 58.8 60 55.9 64.9 55.9L82 55.9C97 55.9 106.2 62.6 106.2 77.9C106.2 88.6 98.1 94.7 88.2 96.3L104.7 114C106.1 115.5 106.6 116.9 106.6 118.3C106.6 122.1 103.6 125.8 99.3 125.8C97.5 125.8 95.2 125.1 93.7 123.3L72.1 97.1L72 97.1L72 118.2C72 123.1 68.9 125.8 64.7 125.8C60.5 125.8 57.4 123.1 57.4 118.2L57.4 63.5ZM72 86.6L82 86.6C87.4 86.6 91.1 83.4 91.1 77.9C91.1 72.4 87.4 69.3 82 69.3L72 69.3L72 86.6Z" />
		<path id="Layer" class="shp1" d="M115.4 64.4C115.4 59.5 117.8 55.9 123 55.9L147.1 55.9C151.8 55.9 154 59.2 154 62.6C154 65.9 151.7 69.3 147.1 69.3L130 69.3L130 83.5L146 83.5C150.8 83.5 153.1 86.8 153.1 90.2C153.1 93.5 150.7 96.9 146 96.9L130 96.9L130 111.7L148 111.7C152.7 111.7 154.9 115 154.9 118.4C154.9 121.7 152.6 125.1 148 125.1L122.9 125.1C118.6 125.1 115.4 122.2 115.4 117.8L115.4 64.4Z" />
		<path id="Layer" class="shp1" d="M163.8 62.9C163.8 58 166.9 55.3 171.1 55.3C173 55.3 176 56.8 177.2 58.5L208.1 99.7L208.3 99.7L208.3 62.9C208.3 58 211.4 55.3 215.6 55.3C219.8 55.3 222.9 58 222.9 62.9L222.9 118.2C222.9 123.1 219.8 125.8 215.6 125.8C213.7 125.8 210.8 124.3 209.5 122.6L178.6 81.9L178.4 81.9L178.4 118.2C178.4 123.1 175.3 125.8 171.1 125.8C166.9 125.8 163.8 123.1 163.8 118.2L163.8 62.9Z" />
		<path id="Layer" class="shp1" d="M246.7 69.3L236.1 69.3C231.4 69.3 229.5 65.9 229.5 62.6C229.5 59.2 231.9 55.9 236.1 55.9L271.9 55.9C276.1 55.9 278.5 59.2 278.5 62.6C278.5 65.9 276.6 69.3 271.9 69.3L261.3 69.3L261.3 118.2C261.3 123.1 258.2 125.8 254 125.8C249.8 125.8 246.7 123.1 246.7 118.2L246.7 69.3L246.7 69.3Z" />
		<path id="Layer" class="shp2" d="M308 134.7L63.4 134.7C60.2 134.7 57.5 137.3 57.5 140.6C57.5 143.8 60.1 146.5 63.4 146.5L319.4 146.5C315.3 142.5 311.5 138.6 308 134.7Z" />
		<path id="Layer" class="shp2" d="M559.5 134.7L355.5 134.7C352 138.6 348.2 142.5 344.1 146.4L559.5 146.4C562.7 146.4 565.4 143.8 565.4 140.5C565.3 137.4 562.7 134.7 559.5 134.7Z" />
		<path id="Layer" class="shp3" d="M335.2 43.4L335.2 43.4C357 43.4 374.7 60.2 374.7 81C374.6 112.8 340.6 140.8 335.2 145.9C329.8 140.8 295.8 112.8 295.7 81C295.8 60.2 313.4 43.4 335.2 43.4L335.2 43.4Z" />
		<path id="Layer" class="shp1" d="M418 54.7C425.1 54.7 438.9 57 438.9 65.6C438.9 69.1 436.5 72.1 432.9 72.1C428.9 72.1 426.2 68.7 418 68.7C405.9 68.7 399.7 78.9 399.7 90.8C399.7 102.4 406 112.3 418 112.3C426.2 112.3 429.5 108.2 433.5 108.2C437.9 108.2 439.9 112.6 439.9 114.8C439.9 124.2 425.2 126.3 418 126.3C398.2 126.3 384.5 110.6 384.5 90.5C384.5 70.3 398.2 54.7 418 54.7Z" />
		<path id="Layer" fill-rule="evenodd" class="shp1" d="M466.7 62.8C468.4 58.3 472.2 54.7 477.1 54.7C482.3 54.7 485.9 58.1 487.5 62.8L506.6 115.8C507.2 117.4 507.4 118.7 507.4 119.4C507.4 123.2 504.3 125.8 500.7 125.8C496.6 125.8 494.6 123.7 493.6 120.7L490.7 111.6L463.6 111.6L460.7 120.7C459.7 123.7 457.7 125.9 453.7 125.9C449.8 125.9 446.5 123 446.5 119.1C446.5 117.5 447 116.4 447.2 115.9L466.7 62.8ZM467.8 98.1L486.3 98.1L477.2 69.9L477 69.9L467.8 98.1Z" />
		<path id="Layer" fill-rule="evenodd" class="shp1" d="M515.9 63.5C515.9 58.8 518.5 55.9 523.4 55.9L540.5 55.9C555.5 55.9 564.7 62.6 564.7 77.9C564.7 88.6 556.6 94.7 546.7 96.3L563.2 114C564.6 115.5 565.1 116.9 565.1 118.3C565.1 122.1 562.1 125.8 557.8 125.8C556 125.8 553.7 125.1 552.2 123.3L530.6 97.1L530.4 97.1L530.4 118.2C530.4 123.1 527.3 125.8 523.1 125.8C518.9 125.8 515.8 123.1 515.8 118.2L515.8 63.5L515.9 63.5ZM530.5 86.6L540.5 86.6C545.9 86.6 549.6 83.4 549.6 77.9C549.6 72.4 545.9 69.3 540.5 69.3L530.5 69.3L530.5 86.6Z" />
		<path id="Layer" class="shp2" d="M331.7 42L331.7 42C353.5 42 371.2 58.8 371.2 79.6C371.1 111.4 337.1 139.4 331.7 144.5C326.3 139.4 292.3 111.4 292.2 79.6C292.3 58.8 309.9 42 331.7 42L331.7 42Z" />
		<path id="Layer" fill-rule="evenodd" class="shp1" d="M352.4 101.1C352.4 104.9 349.7 107.9 345.8 107.9C342.6 107.9 340.6 105.7 339.7 103.7C336.8 107.3 333.4 108.7 328.4 108.7C317 108.7 308.2 98.2 308.2 85C308.2 71.8 317 61.3 328.4 61.3C333.4 61.3 336.7 62.7 339.7 66.3C340.6 64.3 342.6 62.1 345.8 62.1C349.7 62.1 352.4 65.1 352.4 68.9L352.4 101.1ZM321.3 85.1C321.3 91.1 324.5 96.2 330.3 96.2C336.1 96.2 339.3 91.2 339.3 85.1C339.3 79 336.1 74 330.3 74C324.5 74 321.3 79 321.3 85.1Z" />
	</g>
</svg>